<svg xmlns="http://www.w3.org/2000/svg" xmlns:xlink="http://www.w3.org/1999/xlink" preserveAspectRatio="xMidYMid" width="50" height="43" viewBox="0 0 50 43">
  <defs>
    <style>
      .cls-1 {
        fill: #737373;
        fill-rule: evenodd;
      }
    </style>
  </defs>
  <path d="M46.428,43.000 L3.571,43.000 C1.598,43.000 -0.001,41.395 -0.001,39.416 L-0.001,3.583 C-0.001,1.604 1.598,-0.000 3.571,-0.000 L46.428,-0.000 C48.400,-0.000 49.999,1.604 49.999,3.583 L49.999,39.416 C49.999,41.395 48.400,43.000 46.428,43.000 ZM6.249,2.687 C5.263,2.687 4.464,3.489 4.464,4.479 C4.464,5.468 5.263,6.271 6.249,6.271 C7.235,6.271 8.035,5.468 8.035,4.479 C8.035,3.489 7.235,2.687 6.249,2.687 ZM11.606,2.687 C10.620,2.687 9.821,3.489 9.821,4.479 C9.821,5.468 10.620,6.271 11.606,6.271 C12.593,6.271 13.392,5.468 13.392,4.479 C13.392,3.489 12.593,2.687 11.606,2.687 ZM17.075,2.687 C16.089,2.687 15.289,3.489 15.289,4.479 C15.289,5.468 16.089,6.271 17.075,6.271 C18.061,6.271 18.861,5.468 18.861,4.479 C18.861,3.489 18.061,2.687 17.075,2.687 ZM46.000,3.000 L21.000,3.000 L21.000,6.000 L46.000,6.000 L46.000,3.000 ZM46.000,9.000 L4.000,9.000 L4.000,39.000 L46.000,39.000 L46.000,9.000 Z" class="cls-1"/>
</svg>
