<svg xmlns="http://www.w3.org/2000/svg" xmlns:xlink="http://www.w3.org/1999/xlink" preserveAspectRatio="xMidYMid" width="33.44" height="33.75" viewBox="0 0 33.44 33.75">
  <defs>
    <style>
      .cls-1 {
        fill: #dadada;
        fill-rule: evenodd;
      }
    </style>
  </defs>
  <path d="M16.714,33.750 C7.477,33.750 -0.011,26.197 -0.011,16.882 C-0.011,7.565 7.477,0.014 16.714,0.014 C25.951,0.014 33.440,7.565 33.440,16.882 C33.440,26.197 25.951,33.750 16.714,33.750 ZM16.714,4.231 C9.786,4.231 4.170,9.894 4.170,16.882 C4.170,23.868 9.786,29.533 16.714,29.533 C23.642,29.533 29.259,23.868 29.259,16.882 C29.259,9.894 23.642,4.231 16.714,4.231 ZM23.483,19.765 C23.298,20.205 23.070,20.628 22.806,21.025 C22.542,21.416 22.240,21.785 21.909,22.121 C21.577,22.455 21.211,22.759 20.823,23.024 C20.429,23.292 20.009,23.522 19.574,23.708 C19.129,23.897 18.666,24.042 18.194,24.139 C17.709,24.240 17.212,24.290 16.714,24.290 C16.216,24.290 15.719,24.240 15.235,24.139 C14.762,24.042 14.298,23.897 13.854,23.708 C13.419,23.522 12.999,23.292 12.605,23.024 C12.217,22.759 11.852,22.455 11.519,22.121 C11.188,21.785 10.886,21.416 10.623,21.025 C10.358,20.628 10.130,20.205 9.946,19.765 C9.758,19.318 9.614,18.850 9.518,18.374 C9.418,17.885 9.368,17.383 9.368,16.882 C9.368,16.379 9.418,15.878 9.518,15.390 C9.614,14.913 9.758,14.445 9.946,13.997 C10.130,13.558 10.358,13.135 10.623,12.738 C10.886,12.346 11.188,11.978 11.519,11.643 C11.852,11.308 12.217,11.004 12.605,10.738 C12.999,10.471 13.419,10.241 13.854,10.055 C14.298,9.866 14.762,9.721 15.235,9.623 C15.719,9.523 16.216,9.473 16.714,9.473 C17.212,9.473 17.709,9.523 18.194,9.623 C18.666,9.721 19.129,9.866 19.574,10.055 C20.009,10.241 20.429,10.471 20.823,10.738 C21.211,11.004 21.577,11.308 21.909,11.643 C22.240,11.978 22.542,12.346 22.806,12.738 C23.070,13.135 23.298,13.558 23.483,13.997 C23.670,14.445 23.814,14.913 23.911,15.390 C24.011,15.878 24.060,16.379 24.060,16.882 C24.060,17.383 24.011,17.885 23.911,18.374 C23.814,18.850 23.670,19.318 23.483,19.765 ZM20.196,21.992 C20.504,21.777 20.797,21.534 21.062,21.266 C21.341,20.985 21.593,20.677 21.813,20.349 C22.035,20.017 22.226,19.663 22.380,19.295 C22.538,18.921 22.658,18.530 22.739,18.131 C22.757,18.037 22.766,17.941 22.781,17.847 C22.730,17.832 22.661,17.813 22.583,17.793 C22.571,17.790 22.559,17.787 22.546,17.783 C22.369,17.739 22.135,17.687 21.853,17.640 C21.852,17.640 21.851,17.639 21.849,17.639 C21.126,17.519 20.102,17.435 18.997,17.614 C19.745,19.692 20.093,21.419 20.196,21.992 ZM13.276,22.024 C13.606,22.247 13.956,22.440 14.320,22.596 C14.692,22.754 15.080,22.875 15.474,22.957 C15.880,23.040 16.296,23.083 16.714,23.083 C17.132,23.083 17.549,23.040 17.953,22.957 C18.348,22.875 18.737,22.754 19.107,22.596 C19.119,22.591 19.130,22.584 19.142,22.579 C19.020,21.896 18.646,20.063 17.822,17.904 C17.809,17.909 17.796,17.912 17.782,17.917 C17.408,18.048 17.065,18.196 16.740,18.351 C16.694,18.373 16.645,18.394 16.600,18.417 C16.298,18.566 16.020,18.723 15.761,18.885 C15.712,18.915 15.664,18.945 15.617,18.976 C15.366,19.139 15.132,19.304 14.921,19.471 C14.887,19.497 14.857,19.523 14.824,19.550 C14.610,19.723 14.409,19.897 14.234,20.067 C14.234,20.068 14.234,20.068 14.234,20.068 C14.055,20.241 13.901,20.408 13.760,20.570 C13.740,20.592 13.719,20.615 13.700,20.638 C13.572,20.788 13.461,20.929 13.364,21.060 C13.346,21.085 13.328,21.109 13.311,21.133 C13.222,21.257 13.144,21.373 13.083,21.470 C13.073,21.487 13.064,21.501 13.055,21.517 C12.997,21.611 12.948,21.695 12.917,21.753 C13.035,21.846 13.153,21.940 13.276,22.024 ZM10.575,16.682 C10.573,16.749 10.565,16.815 10.565,16.882 C10.565,17.303 10.608,17.723 10.690,18.131 C10.771,18.530 10.891,18.921 11.049,19.295 C11.203,19.663 11.394,20.017 11.615,20.349 C11.766,20.572 11.949,20.770 12.126,20.973 C12.168,20.906 12.231,20.810 12.304,20.703 C12.317,20.683 12.326,20.669 12.340,20.649 C12.418,20.537 12.512,20.408 12.620,20.267 C12.641,20.240 12.661,20.214 12.683,20.185 C12.799,20.038 12.927,19.881 13.074,19.713 C13.096,19.688 13.119,19.663 13.142,19.638 C13.301,19.460 13.473,19.276 13.668,19.087 C13.857,18.903 14.068,18.717 14.291,18.533 C14.326,18.505 14.357,18.477 14.392,18.449 C14.610,18.273 14.846,18.102 15.095,17.937 C15.142,17.906 15.189,17.875 15.237,17.845 C15.494,17.681 15.764,17.526 16.050,17.383 C16.093,17.362 16.138,17.343 16.182,17.322 C16.489,17.177 16.808,17.042 17.149,16.930 C17.229,16.904 17.310,16.884 17.391,16.861 C17.232,16.499 17.065,16.135 16.884,15.778 C14.346,16.543 11.896,16.666 10.907,16.680 L10.907,16.680 C10.766,16.682 10.652,16.683 10.575,16.682 ZM14.116,11.267 C13.825,11.404 13.541,11.558 13.276,11.739 C12.951,11.961 12.645,12.215 12.367,12.496 C12.087,12.776 11.836,13.085 11.615,13.414 C11.394,13.746 11.203,14.100 11.049,14.467 C10.898,14.825 10.784,15.198 10.704,15.577 C10.769,15.577 10.859,15.577 10.970,15.574 C10.972,15.574 10.976,15.574 10.978,15.574 C11.203,15.569 11.516,15.558 11.897,15.533 C11.898,15.533 11.899,15.533 11.900,15.533 C12.859,15.469 14.250,15.315 15.788,14.950 C15.788,14.950 15.788,14.950 15.789,14.949 C15.979,14.905 16.172,14.856 16.366,14.804 C15.408,13.086 14.398,11.658 14.116,11.267 ZM20.152,11.739 C19.824,11.516 19.472,11.323 19.107,11.167 C18.736,11.009 18.348,10.888 17.953,10.806 C17.549,10.722 17.132,10.680 16.714,10.680 C16.296,10.680 15.880,10.722 15.474,10.806 C15.422,10.816 15.371,10.834 15.320,10.846 C15.621,11.256 16.637,12.678 17.575,14.415 C17.820,14.322 18.050,14.223 18.264,14.123 C18.268,14.121 18.272,14.119 18.276,14.117 C19.782,13.405 20.535,12.551 20.768,12.251 C20.568,12.074 20.372,11.889 20.152,11.739 ZM22.739,15.631 C22.658,15.233 22.538,14.843 22.380,14.467 C22.226,14.100 22.035,13.746 21.813,13.414 C21.711,13.261 21.580,13.130 21.464,12.987 C21.212,13.305 20.382,14.213 18.813,15.011 C18.797,15.019 18.780,15.027 18.763,15.035 C18.542,15.146 18.310,15.253 18.059,15.357 C18.207,15.662 18.350,15.971 18.482,16.284 C18.529,16.395 18.568,16.502 18.613,16.612 C18.836,16.584 19.058,16.564 19.278,16.551 C19.316,16.548 19.352,16.547 19.389,16.545 C19.578,16.535 19.762,16.529 19.945,16.527 C19.976,16.527 20.007,16.526 20.038,16.526 C20.247,16.526 20.451,16.530 20.647,16.538 C20.662,16.539 20.676,16.540 20.690,16.540 C20.868,16.548 21.038,16.559 21.203,16.573 C21.242,16.575 21.280,16.578 21.319,16.582 C21.479,16.596 21.632,16.611 21.774,16.627 C21.783,16.628 21.794,16.629 21.803,16.630 C21.956,16.648 22.093,16.667 22.222,16.685 C22.254,16.690 22.282,16.694 22.313,16.699 C22.409,16.714 22.495,16.727 22.572,16.741 C22.594,16.744 22.616,16.748 22.636,16.751 C22.727,16.767 22.802,16.781 22.859,16.793 C22.853,16.402 22.815,16.012 22.739,15.631 Z" class="cls-1"/>
</svg>
