<svg xmlns="http://www.w3.org/2000/svg" xmlns:xlink="http://www.w3.org/1999/xlink" preserveAspectRatio="xMidYMid" width="33.467" height="33.75" viewBox="0 0 33.467 33.75">
  <defs>
    <style>
      .cls-1 {
        fill: #dadada;
        fill-rule: evenodd;
      }
    </style>
  </defs>
  <path d="M16.727,33.736 C7.489,33.736 0.001,26.184 0.001,16.868 C0.001,7.552 7.489,0.000 16.727,0.000 C25.964,0.000 33.453,7.552 33.453,16.868 C33.453,26.184 25.964,33.736 16.727,33.736 ZM16.727,4.217 C9.799,4.217 4.182,9.881 4.182,16.868 C4.182,23.855 9.799,29.519 16.727,29.519 C23.654,29.519 29.271,23.855 29.271,16.868 C29.271,9.881 23.654,4.217 16.727,4.217 ZM17.210,13.526 L17.207,14.718 L19.306,14.718 L18.853,17.110 L17.270,17.110 L17.278,23.466 L14.631,23.474 L14.623,17.127 L13.056,17.110 L13.056,14.710 L14.640,14.701 L14.688,13.391 C14.688,11.589 15.305,10.460 17.410,10.460 L19.344,10.468 L19.353,12.597 L18.329,12.671 C17.509,12.671 17.210,12.951 17.210,13.526 Z" class="cls-1"/>
</svg>
