<svg xmlns="http://www.w3.org/2000/svg" xmlns:xlink="http://www.w3.org/1999/xlink" preserveAspectRatio="xMidYMid" width="50" height="42" viewBox="0 0 50 42">
  <defs>
    <style>
      .cls-1 {
        fill: #423e3e;
        fill-rule: evenodd;
      }
    </style>
  </defs>
  <path d="M46.551,42.000 L3.448,42.000 C1.543,42.000 -0.001,40.433 -0.001,38.500 L-0.001,8.750 C-0.001,6.817 1.543,5.250 3.448,5.250 L6.896,5.250 L6.896,-0.000 L20.689,0.109 L20.683,5.280 L46.551,5.250 C48.455,5.250 49.999,6.817 49.999,8.750 L49.999,38.500 C49.999,40.433 48.455,42.000 46.551,42.000 ZM17.241,3.500 L10.344,3.500 L10.344,8.750 L17.241,8.750 L17.241,3.500 ZM18.965,12.177 C12.299,12.177 6.896,17.661 6.896,24.427 C6.896,31.192 12.299,36.677 18.965,36.677 C25.630,36.677 31.034,31.192 31.034,24.427 C31.034,17.661 25.630,12.177 18.965,12.177 ZM42.241,9.661 C40.336,9.661 38.792,11.228 38.792,13.161 C38.792,15.094 40.336,16.661 42.241,16.661 C44.145,16.661 45.689,15.094 45.689,13.161 C45.689,11.228 44.145,9.661 42.241,9.661 ZM18.966,32.593 C14.681,32.593 11.207,29.068 11.207,24.719 C11.207,20.369 14.681,16.844 18.966,16.844 C23.250,16.844 26.724,20.369 26.724,24.719 C26.724,29.068 23.250,32.593 18.966,32.593 Z" class="cls-1"/>
</svg>
