<svg xmlns="http://www.w3.org/2000/svg" xmlns:xlink="http://www.w3.org/1999/xlink" preserveAspectRatio="xMidYMid" width="33.47" height="33.75" viewBox="0 0 33.47 33.75">
  <defs>
    <style>
      .cls-1 {
        fill: #dadada;
        fill-rule: evenodd;
      }
    </style>
  </defs>
  <path d="M16.736,33.750 C7.498,33.750 0.010,26.197 0.010,16.882 C0.010,7.565 7.498,0.014 16.736,0.014 C25.972,0.014 33.462,7.565 33.462,16.882 C33.462,26.197 25.972,33.750 16.736,33.750 ZM16.736,4.231 C9.808,4.231 4.191,9.894 4.191,16.882 C4.191,23.868 9.808,29.533 16.736,29.533 C23.663,29.533 29.280,23.868 29.280,16.882 C29.280,9.894 23.663,4.231 16.736,4.231 ZM17.820,20.471 C16.948,20.471 16.129,19.996 15.848,19.457 C15.848,19.457 15.379,21.332 15.281,21.694 C14.931,22.973 13.903,24.253 13.824,24.359 C13.767,24.432 13.644,24.409 13.631,24.312 C13.609,24.149 13.347,22.535 13.656,21.218 C13.811,20.557 14.694,16.782 14.694,16.782 C14.694,16.782 14.436,16.263 14.436,15.494 C14.436,14.288 15.130,13.387 15.993,13.387 C16.727,13.387 17.082,13.943 17.082,14.609 C17.082,15.354 16.611,16.466 16.369,17.498 C16.166,18.362 16.799,19.066 17.643,19.066 C19.172,19.066 20.202,17.085 20.202,14.738 C20.202,12.953 19.011,11.618 16.844,11.618 C14.396,11.618 12.869,13.460 12.869,15.517 C12.869,16.226 13.077,16.727 13.402,17.113 C13.551,17.291 13.572,17.363 13.518,17.567 C13.479,17.717 13.391,18.077 13.353,18.221 C13.299,18.427 13.134,18.500 12.949,18.424 C11.822,17.960 11.296,16.714 11.296,15.314 C11.296,13.002 13.230,10.229 17.065,10.229 C20.147,10.229 22.175,12.478 22.175,14.892 C22.175,18.086 20.415,20.471 17.820,20.471 Z" class="cls-1"/>
</svg>
