<svg xmlns="http://www.w3.org/2000/svg" xmlns:xlink="http://www.w3.org/1999/xlink" preserveAspectRatio="xMidYMid" width="33.47" height="33.75" viewBox="0 0 33.47 33.75">
  <defs>
    <style>
      .cls-1 {
        fill: #dadada;
        fill-rule: evenodd;
      }
    </style>
  </defs>
  <path d="M16.742,33.750 C7.504,33.750 0.016,26.197 0.016,16.882 C0.016,7.565 7.504,0.014 16.742,0.014 C25.978,0.014 33.467,7.565 33.467,16.882 C33.467,26.197 25.978,33.750 16.742,33.750 ZM16.742,4.231 C9.814,4.231 4.197,9.894 4.197,16.882 C4.197,23.868 9.814,29.533 16.742,29.533 C23.669,29.533 29.286,23.868 29.286,16.882 C29.286,9.894 23.669,4.231 16.742,4.231 ZM12.455,13.239 L12.455,11.259 C18.084,11.259 22.647,15.863 22.647,21.538 L20.683,21.538 C20.683,16.962 16.994,13.239 12.455,13.239 ZM19.079,21.538 L17.115,21.538 C17.115,18.946 15.024,16.837 12.455,16.837 L12.455,14.857 C16.115,14.857 19.079,17.850 19.079,21.538 ZM13.656,19.115 C14.320,19.115 14.858,19.657 14.858,20.326 C14.858,20.996 14.320,21.538 13.656,21.538 C12.993,21.538 12.455,20.996 12.455,20.326 C12.455,19.657 12.993,19.115 13.656,19.115 Z" class="cls-1"/>
</svg>
