<svg xmlns="http://www.w3.org/2000/svg" xmlns:xlink="http://www.w3.org/1999/xlink" preserveAspectRatio="xMidYMid" width="45.031" height="45.969" viewBox="0 0 45.031 45.969">
  <defs>
    <style>
      .cls-1 {
        fill: #737373;
        fill-rule: evenodd;
      }
    </style>
  </defs>
  <path d="M44.113,43.963 L43.019,45.055 C41.811,46.262 39.852,46.262 38.644,45.055 L29.896,36.318 C28.881,35.305 28.771,33.788 29.459,32.605 L24.676,27.829 C22.104,29.735 18.930,30.877 15.480,30.877 C6.939,30.877 0.014,23.961 0.014,15.431 C0.014,6.900 6.939,-0.015 15.480,-0.015 C24.022,-0.015 30.946,6.900 30.946,15.431 C30.946,19.402 29.433,23.011 26.967,25.748 L31.646,30.421 C32.830,29.733 34.350,29.844 35.364,30.857 L44.113,39.595 C45.321,40.801 45.321,42.757 44.113,43.963 ZM27.048,15.366 C27.048,8.969 21.854,3.782 15.448,3.782 C13.664,3.782 11.994,4.217 10.483,4.936 C11.291,5.764 12.508,7.002 12.573,7.002 C11.316,7.002 7.202,11.111 7.202,12.463 C7.202,12.397 5.892,11.156 5.035,10.351 C4.298,11.874 3.848,13.561 3.848,15.366 C3.848,21.764 9.042,26.951 15.448,26.951 C21.854,26.951 27.048,21.764 27.048,15.366 Z" class="cls-1"/>
</svg>
