<svg xmlns="http://www.w3.org/2000/svg" xmlns:xlink="http://www.w3.org/1999/xlink" preserveAspectRatio="xMidYMid" width="33.438" height="33.75" viewBox="0 0 33.438 33.75">
  <defs>
    <style>
      .cls-1 {
        fill: #00bbf5;
        fill-rule: evenodd;
      }
    </style>
  </defs>
  <path d="M16.726,33.736 C7.488,33.736 0.000,26.184 0.000,16.868 C0.000,7.552 7.488,0.000 16.726,0.000 C25.962,0.000 33.451,7.552 33.451,16.868 C33.451,26.184 25.962,33.736 16.726,33.736 ZM16.726,4.217 C9.798,4.217 4.181,9.881 4.181,16.868 C4.181,23.855 9.798,29.519 16.726,29.519 C23.653,29.519 29.270,23.855 29.270,16.868 C29.270,9.881 23.653,4.217 16.726,4.217 ZM21.866,14.646 C21.871,14.762 21.873,14.879 21.873,14.997 C21.873,18.577 19.171,22.707 14.228,22.707 C12.711,22.707 11.299,22.258 10.109,21.489 C10.320,21.514 10.533,21.527 10.750,21.527 C12.009,21.527 13.168,21.094 14.087,20.367 C12.912,20.345 11.919,19.562 11.577,18.485 C11.742,18.517 11.910,18.534 12.083,18.534 C12.328,18.534 12.565,18.501 12.791,18.438 C11.562,18.189 10.636,17.094 10.636,15.781 C10.636,15.770 10.636,15.759 10.636,15.747 C10.998,15.950 11.412,16.072 11.853,16.086 C11.132,15.600 10.657,14.771 10.657,13.831 C10.657,13.334 10.790,12.869 11.021,12.468 C12.347,14.108 14.326,15.187 16.559,15.299 C16.514,15.101 16.490,14.894 16.490,14.682 C16.490,13.186 17.693,11.972 19.177,11.972 C19.950,11.972 20.648,12.302 21.138,12.828 C21.750,12.707 22.325,12.481 22.844,12.171 C22.644,12.803 22.218,13.334 21.663,13.670 C22.207,13.604 22.725,13.459 23.206,13.243 C22.846,13.786 22.391,14.264 21.866,14.646 Z" class="cls-1"/>
</svg>
