<svg xmlns="http://www.w3.org/2000/svg" xmlns:xlink="http://www.w3.org/1999/xlink" preserveAspectRatio="xMidYMid" width="50" height="58" viewBox="0 0 50 58">
  <defs>
    <style>
      .cls-1 {
        fill: #737373;
        fill-rule: evenodd;
      }
    </style>
  </defs>
  <path d="M48.438,50.267 L47.407,50.267 C47.239,50.873 46.998,51.448 46.691,51.981 L47.644,52.934 C48.254,53.544 48.254,54.532 47.644,55.142 L47.092,55.694 C46.482,56.304 45.493,56.304 44.883,55.694 L43.923,54.735 C43.391,55.038 42.818,55.274 42.214,55.439 L42.214,56.439 C42.214,57.301 41.514,58.000 40.652,58.000 L39.870,58.000 C39.008,58.000 38.308,57.301 38.308,56.439 L38.308,55.439 C37.704,55.274 37.131,55.038 36.598,54.735 L35.639,55.694 C35.029,56.304 34.040,56.304 33.430,55.694 L32.878,55.142 C32.268,54.532 32.268,53.544 32.878,52.934 L33.831,51.981 C33.524,51.448 33.283,50.873 33.115,50.267 L32.084,50.267 C31.221,50.267 30.522,49.568 30.522,48.705 L30.522,47.925 C30.522,47.063 31.221,46.364 32.084,46.364 L33.103,46.364 C33.264,45.763 33.495,45.191 33.794,44.661 L32.878,43.745 C32.268,43.135 32.268,42.146 32.878,41.537 L33.430,40.985 C34.040,40.375 35.029,40.375 35.639,40.985 L36.538,41.883 C37.087,41.563 37.681,41.314 38.308,41.143 L38.308,40.094 C38.308,39.232 39.008,38.533 39.870,38.533 L40.652,38.533 C41.514,38.533 42.214,39.232 42.214,40.094 L42.214,41.143 C42.841,41.314 43.435,41.563 43.984,41.883 L44.883,40.985 C45.493,40.375 46.482,40.375 47.092,40.985 L47.644,41.537 C48.254,42.146 48.254,43.135 47.644,43.745 L46.728,44.661 C47.026,45.191 47.257,45.763 47.419,46.364 L48.438,46.364 C49.300,46.364 50.000,47.063 50.000,47.925 L50.000,48.705 C50.000,49.568 49.300,50.267 48.438,50.267 ZM40.261,44.046 C37.888,44.046 35.965,45.968 35.965,48.340 C35.965,50.711 37.888,52.633 40.261,52.633 C42.633,52.633 44.557,50.711 44.557,48.340 C44.557,45.968 42.633,44.046 40.261,44.046 ZM40.261,50.242 C39.182,50.242 38.308,49.369 38.308,48.291 C38.308,47.213 39.182,46.339 40.261,46.339 C41.339,46.339 42.214,47.213 42.214,48.291 C42.214,49.369 41.339,50.242 40.261,50.242 ZM36.940,24.193 L34.813,24.193 C34.468,25.444 33.971,26.629 33.338,27.729 L35.303,29.694 C36.561,30.951 36.561,32.989 35.303,34.246 L34.165,35.384 C32.907,36.642 30.867,36.642 29.610,35.384 L27.632,33.407 C26.534,34.032 25.352,34.518 24.106,34.857 L24.106,36.919 C24.106,38.697 22.664,40.138 20.885,40.138 L19.275,40.138 C17.496,40.138 16.054,38.697 16.054,36.919 L16.054,34.857 C14.808,34.518 13.626,34.032 12.529,33.407 L10.551,35.384 C9.293,36.642 7.254,36.642 5.996,35.384 L4.857,34.246 C3.599,32.989 3.599,30.951 4.857,29.694 L6.823,27.729 C6.189,26.629 5.693,25.444 5.347,24.193 L3.221,24.193 C1.442,24.193 -0.000,22.752 -0.000,20.974 L-0.000,19.365 C-0.000,17.587 1.442,16.146 3.221,16.146 L5.321,16.146 C5.654,14.907 6.131,13.728 6.747,12.635 L4.857,10.746 C3.599,9.489 3.599,7.451 4.857,6.193 L5.996,5.055 C7.254,3.798 9.293,3.798 10.551,5.055 L12.403,6.907 C13.537,6.248 14.760,5.734 16.054,5.382 L16.054,3.219 C16.054,1.441 17.496,-0.000 19.275,-0.000 L20.885,-0.000 C22.664,-0.000 24.106,1.441 24.106,3.219 L24.106,5.381 C25.400,5.734 26.624,6.248 27.757,6.907 L29.610,5.055 C30.867,3.798 32.907,3.798 34.165,5.055 L35.303,6.193 C36.561,7.451 36.561,9.489 35.303,10.746 L33.414,12.635 C34.030,13.728 34.506,14.907 34.839,16.146 L36.940,16.146 C38.718,16.146 40.161,17.587 40.161,19.365 L40.161,20.974 C40.161,22.752 38.718,24.193 36.940,24.193 ZM20.080,11.367 C15.188,11.367 11.223,15.331 11.223,20.220 C11.223,25.109 15.188,29.073 20.080,29.073 C24.972,29.073 28.938,25.109 28.938,20.220 C28.938,15.331 24.972,11.367 20.080,11.367 ZM20.080,24.143 C17.857,24.143 16.054,22.342 16.054,20.119 C16.054,17.897 17.857,16.095 20.080,16.095 C22.304,16.095 24.106,17.897 24.106,20.119 C24.106,22.342 22.304,24.143 20.080,24.143 Z" class="cls-1"/>
</svg>
